<?xml version="1.0" encoding="utf-8"?>
<!-- Generator: Adobe Illustrator 24.2.1, SVG Export Plug-In . SVG Version: 6.00 Build 0)  -->
<svg version="1.1" id="Layer_1" xmlns="http://www.w3.org/2000/svg" xmlns:xlink="http://www.w3.org/1999/xlink" x="0px" y="0px"
	 viewBox="0 0 1074 450" style="enable-background:new 0 0 1074 450;" xml:space="preserve">
<style type="text/css">
	.st0{fill:#231F20;}
	.st1{fill:#FFFFFF;}
	.st2{fill:#FFFFFF;stroke:#000000;stroke-width:0.5;stroke-miterlimit:10;}
	.st3{font-family:'Helvetica';}
	.st4{font-size:12px;}
	.st5{fill:none;stroke:#000000;stroke-width:0.5;stroke-miterlimit:10;}
</style>
<path class="st0" d="M136.1,146.9c0,14.4,0,28.7,0,43.1c12.3,0,24.5,0,36.8,0c0-11.8,0-23.7,0-35.5c-1.3,0.2-2.5,0.4-3.8,0.6
	c0-0.6,0-1.3,0-1.9c3.6-1.1,10.7-6.5,13.9-5.1c2.3,1.5,1.3,18.2,1.3,22.8c0,22.8,0,45.6,0,68.5c1.6,0.8,0.4-0.3,1.3,1.3
	c-4.4,1.6-7.3,5.2-12,6.3c-1.3-3.8-0.6-10.4-0.6-15.2c0-11.6,0-23.2,0-34.9c-11.8-0.2-23.7-0.4-35.5-0.6c-3.7,7.2-1.3,32.6-1.3,43.1
	c2.1,0.5,1-0.3,1.9,1.3c-4.9,1-6.9,4.5-12,5.7c0-18,0-35.9,0-53.9c0-12.5,0-24.9,0-37.4c-1.3-0.2-3.5-0.6-4.4-1.3c0.2,0,0.4,0,0.6,0
	C124.3,150.9,131.8,147.5,136.1,146.9z"/>
<path class="st0" d="M611.5,191.3c6.8,0,13.5,0,20.3,0c0,0.4,0,0.8,0,1.3c-4.2,0.6-4.7,3.6-7.6,5.1c-4.2,0-8.5,0-12.7,0
	c-0.1,15.1-0.4,32.6,1.3,45.6c-5.1,0.9-7.1,4.8-12.7,5.7c0-17.1,0-34.2,0-51.3c-3.8,0-7.6,0-11.4,0c0-0.4,0-0.8,0-1.3
	c4.9-1.5,5-4.9,11.4-5.1c-0.1-7.8-1.1-17.3,1.3-23.5c3.4-8.9,18.6-19.8,31.7-19.7c2.6,6.2,4.4,7.7,5.1,17.1
	c-3.6,2.2-6.9,5.2-11.4,6.3c0.4-9.2-0.8-17.4-10.1-17.1c-1.2,2.6-4,5-5.1,7.6c-1.2,2.9-0.3,7.3,0,9.5c-0.2,1.9-0.4,3.8-0.6,5.7
	C611.1,182,611.3,186.6,611.5,191.3z"/>
<path class="st0" d="M840.9,176.1c0.8,0,1.7,0,2.5,0c0,0.4,0,0.8,0,1.3c-3.3,2-8.1,4.8-10.8,7.6c-1.1,0-2.1,0-3.2,0
	c0-6.9,0-10.5,0-17.7c4.5-1.3,7.3-4.7,11.4-6.3C840.9,165.9,840.9,171,840.9,176.1z"/>
<path class="st0" d="M804.2,171c0,6.8,0,13.5,0,20.3c7,0,13.9,0,20.9,0c0,0.4,0,0.8,0,1.3c-0.2,0-0.4,0-0.6,0
	c-0.9,2.6-2.8,2.8-4.4,4.4c-4.9,0.2-9.7,0.4-14.6,0.6c-3.2,6.1-1.3,25.9-1.3,34.9c1.3,1.6,1.2,3.9,2.5,5.7c1.1,1.6,3.4,2,4.4,3.8
	c-5.5,1.2-7.4,3.8-15.2,3.8c-4.8-11.4-3.2-32-3.2-48.2c-3.8,0-7.6,0-11.4,0c0-0.4,0-0.8,0-1.3c4.6-1.4,5.5-4.8,11.4-5.1
	c-0.1-5.6-0.3-12,1.3-15.8C797.6,173.9,800,171.6,804.2,171z"/>
<path class="st0" d="M417.5,195.7c-0.8,0-1.7,0-2.5,0c0-0.2,0-0.4,0-0.6c0.2,0,0.4,0,0.6,0c2.2-3.3,8.8-6.9,13.3-7.6
	c-0.1,17.9-0.7,38.7,1.3,54.5c-4.7,1.5-6.6,4.8-12.7,5.1c0-1.7,0-3.4,0-5.1c-4,0.4-5,2.5-7.6,3.8c-3.3,1.7-9.7,1.2-14.6,1.3
	c-4.3-5.8-7.9-7.7-10.8-15.8c0-2.7,0-5.5,0-8.2c0-10,1.7-20.1,0-29.2c-0.2,0-0.4,0-0.6,0c-0.7,0.5-0.6,0.4-1.9,0.6
	c0-0.6,0-1.3,0-1.9c3.4-0.9,10.6-6.7,13.3-5.1c1.7,2.9,0,8.7,0.6,12.7c1.4,8.5-2.2,44.4,14.6,41.2c2-0.4,4.6-2,7-2.5
	c0-8.5,0-16.9,0-25.4C418.9,210.5,417.6,201.8,417.5,195.7z"/>
<path class="st0" d="M261.6,187.5c0,2.1,0,4.2,0,6.3c5.6-0.9,27.3-15.6,27.9,1.3c4.6-0.6,6.4-3.6,9.5-5.1c4.6-2.2,9.3-1.4,14.6-1.3
	c0.8,1.9,3,3.4,3.8,5.1c0,2.1,0,4.2,0,6.3c2.4,11,0.7,26.5,0.6,38.7c1.5,0.6,2.3,0.5,3.2,1.9c-0.2,0-0.4,0-0.6,0
	c-2.6,3.1-9.2,6.2-14.6,6.3c-0.5-1.3-0.6-3-0.6-5.1c1.3-2.1,0.6-7.6,0.6-10.8c0-7.8,1.8-28.9-1.3-33.6c-1.6-2.4-6-2.6-10.1-2.5
	c-0.9,1.6-1.3,1.3-3.8,1.3c-0.1,9.9,0,18.3,0,29.2c0,4-1.6,9.4,0,12c0.8,1.6,1.1,1,1.9,2.5c-0.2,0-0.4,0-0.6,0
	c-2.2,3.2-7.8,6.6-12.7,7c0-12.5,0-24.9,0-37.4c0-5.3,0.8-11.3-2.5-13.3c-2.2-3.6-6.7-1.5-11.4-1.3c-0.9,1.1-3.3,2-3.8,3.2
	c0,13.7,0,27.5,0,41.2c0.8,0.4,0.5,0,0.6,0.6c-1.6,2.4-8.5,7.1-11.4,5.7c-1.8-2.9-0.6-11-0.6-15.2c0-12.7,0-25.4,0-38
	C254.9,191.4,256.8,188.2,261.6,187.5z"/>
<path class="st0" d="M867.6,187.5c0.4,4.2,2.6,6.7,3.8,9.5c0,1.1,0,2.1,0,3.2c0.3,0.7,2.2,2.5,2.5,3.2c1.1,2.6,0,4.5,1.3,7
	c0.4,0,0.8,0,1.3,0c0,0.8,0,1.7,0,2.5c0.4,0.2,0.8,0.4,1.3,0.6c0,1.1,0,2.1,0,3.2c2.9,5.4,7.1,11.4,7.6,19c0.8,0,1.7,0,2.5,0
	c0-4.4,1.3-5.2,2.5-7.6c0.2-1.7,0.4-3.4,0.6-5.1c1.5-3.9,3.9-9,5.7-12.7c0-1.3,0-2.5,0-3.8c2.5-4.9,6.4-11.5,7.6-17.1
	c0.6,0,1.3,0,1.9,0c-0.5,4.5-2.8,7.6-4.4,10.8c0,1.3,0,2.5,0,3.8c-0.4,0-0.8,0-1.3,0c-1.6,3.3-1.1,7.3-2.5,10.8
	c-1.8,4.2-4.2,10.4-6.3,14.6c-1.3,2.5-0.1,4.4-1.3,7c-0.2,0.5-2.4,1.6-2.5,1.9c-0.9,2,1.1,3,1.3,5.1c-4.3,1.8-7.2,5.6-12.7,6.3
	c-0.3-3.8-2.4-6.2-3.8-8.9c-1.6-2.9-1-7.2-2.5-10.1c-0.8-1.5-3.1-4.1-3.8-5.7c0-1.1,0-2.1,0-3.2c-1.6-3.8-4.5-8.9-6.3-12.7
	c0-1.3,0-2.5,0-3.8c-1.5-2.9-3.4-4.3-3.8-8.9c-3,0.6-5.6,3.4-7.6,2.5c-0.5-0.6-0.2-0.2-0.6-1.3c0.2,0,0.4,0,0.6,0
	C850.1,194.9,863.4,187.8,867.6,187.5z"/>
<path class="st0" d="M454.3,188.1c0,3.2,0,6.3,0,9.5c1.7-0.1,2.2-0.3,3.2-0.6c0,0.6,0,1.3,0,1.9c-0.6,0-1.3,0-1.9,0
	c-3.7,10.3-1.3,29.2-1.3,41.8c1.6,0.8,0.4-0.3,1.3,1.3c-4.7,0.5-7.3,4-12,5.1c-0.5-1.4-0.6-3.4-0.6-5.7c0.8-1.6,0-9,0-12.7
	c0-11.6,0.4-25.3-1.3-34.9C446.2,192.4,449.1,188.8,454.3,188.1z"/>
<path class="st0" d="M473.3,203.9c-0.2-1.9-0.4-3.8-0.6-5.7c-1.1-1.1-2.1-2.1-3.2-3.2c-3-1.4-5.3,1.3-7-1.3
	c5.8-3.3,10.1-5.7,18.4-5.1c1.5,3.4,3.6,4.3,3.8,9.5C481.1,200,477.4,203.1,473.3,203.9z"/>
<path class="st0" d="M537.9,198.9c0-0.8,0-1.7,0-2.5c-2.4-0.9-5-1.3-8.9-1.3c0.5,3.2,5.3,9.5,2.5,15.2c-4.3,8.9-18.4,18.6-29.2,20.9
	c-3-0.2-5.9-0.4-8.9-0.6c-1.4-2.4-4.9-3.4-6.3-5.7c-2.4-3.9-2.6-8.9-2.5-15.2c1.4-1.2,1.3-3.1,2.5-4.4c1.9-2.1,7.9-5.7,10.8-7
	c0,0.6,0,1.3,0,1.9c-3.4,3-2.2,9.5-0.6,13.3c3.2,7.6,5.3,11.2,16.5,10.8c2.2-3.5,5.9-2.4,6.3-8.2c3.2-2.7,0.2-9.3-1.3-11.4
	c-4.9-6.9-9-11-19.7-6.3c0-0.6,0-1.3,0-1.9c5-1.1,10.3-4.4,14.6-6.3c7.7-3.5,12.6,6.2,17.7,3.8c5.9-2.7,6.2-5,15.8-5.1
	c1.1,1.7,2.8,3.2,1.9,5.1C548.2,195.7,541.2,198.8,537.9,198.9z"/>
<path class="st0" d="M693.9,188.7c0,2.5,0,5.1,0,7.6c0.2,0,0.4,0,0.6,0c4.2-4.8,17.2-7.6,26.6-7.6c1.2,1.4,2.7,1.7,3.8,3.2
	c2.5,3.2,1.9,9.5,1.9,15.2c0,11.6,0.1,25.2,1.3,34.9c-5.2,0.7-6.7,4.6-12.7,5.1c1.1-9,0-21.5,0-32.3c0-4.4,0-8.9,0-13.3
	c-0.6-1.7-2.1-2.6-2.5-5.1c-3.5-0.3-5.8-2.4-10.1-1.3c-2.4,0.6-6.2,2-8.9,2.5c0,14.8,0,29.6,0,44.4c-4.3,1.3-6.4,4.5-11.4,5.1
	c1.8-15.5,0-35.8,0-53.2C686.7,192.5,689.2,189.4,693.9,188.7z"/>
<path class="st0" d="M840.9,188.7c-0.1,13.4-2.4,41.9,1.3,52c-4.1,1.7-7,5.4-12,6.3c-0.2-12.9-0.4-25.8-0.6-38.7c0-4.6,0-9.3,0-13.9
	C829.7,194.1,839.9,188.9,840.9,188.7z"/>
<path class="st0" d="M775,197.6c-4.6,0.5-7.6,3.5-11.4,5.1c-1.5-5.6-5.2-6.6-12.7-6.3c-0.2,2.9,0,3.9,0,7.6c3.5,1.5,5.9,5.6,8.9,7.6
	c8.9,6,21.8,6.5,21.6,21.6c-1.8,1.6-2.4,5.1-4.4,6.3c-2.4,1.5-4.5,1.1-7,2.5c-9.6,5.6-17.8,9.3-27.9,1.3c-2.6-2.1-3.6-1.6-3.8-6.3
	c-1.6-0.9-1-0.3-1.3-2.5c4.2-1.2,7.6-3.6,11.4-5.1c0.9,8.6,10.6,12.8,20.3,12.7c0.8-4.7,0.8-6,0-11.4c-2.6-1.1-3.1-3.6-5.1-5.1
	c-7.6-5.6-25.1-9.4-25.4-21.6c8.2-7.7,16.2-14,32.3-13.9C772.8,192.6,774.8,192.7,775,197.6z"/>
<path class="st0" d="M373.1,206.5c-1.4-4.2,0.6-7.9-1.3-11.4c-1.9-3.5-5.8-4.8-8.2-7.6c-9.1-0.1-19.3,1.6-22.2,7.6
	c-0.4,0-0.8,0-1.3,0c0-11.4,0-22.8,0-34.2c0-3.8,1-10.8-0.6-13.3c-1.2-1.1-13.2,5.8-15.2,7c0.2,0.2,0.4,0.4,0.6,0.6
	c1.1,0.6,1.6,0.1,3.8,0c0,20.1,0,40.1,0,60.2c0,6-1.1,20.7,0.6,23.5c0,2.5,0,5.1,0,7.6c2.5-1,6.5-3.5,8.9-3.8
	c1.9-0.3,4.1,1.6,5.1,1.9c5.4,1.9,14.7-0.8,18.4-2.5C371.8,237.4,378.4,221.9,373.1,206.5z M363,235c-1.4,3-7.3,3.3-12,3.2
	c-3.4-3.5-8.5-5.5-10.1-10.8c-0.2,0-0.4,0-0.6,0c0-8.7,0-17.3,0-26c1-2.4,4.1-3.7,6.3-5.1c1.1-0.7,2.1-2.3,4.4-1.9
	c2.4,0.4,4.4,1.5,7,1.9c0.6,2.7,3.4,6.7,5.1,8.9C363,215.1,363,225.1,363,235z"/>
<path class="st0" d="M581.1,190c-2.5-0.2-5.1-0.4-7.6-0.6c-2.9,1.9-6.1,1.7-9.5,3.2c-9.1,4-23,16.3-19,33c0.6,2.4,2.2,5.7,3.2,7.6
	c0,1.1,0,2.1,0,3.2c1.9,3.8,7,6.2,9.5,9.5c10.2,0.5,21.4-0.8,26.6-8.2c0.2,0,0.4,0,0.6,0c0-0.4,0-0.8,0-1.3c-3,0.8-6.8,2.5-8.9,4.4
	c-12.5,0-14.1-9.4-19-17.1c9.6-2.7,20.4-9,28.5-13.9C587.3,200.3,583.6,195.9,581.1,190z M574.7,210.9c-1.5,5.4-11.1,4-13.9,8.2
	c-2.9-0.1-3.5-0.4-5.1-1.3c-0.1-13.6,1.6-15.6,7.6-22.8c2.6,0.8,6,2.1,8.9,2.5C572.9,200.9,577.2,207,574.7,210.9z"/>
<path class="st0" d="M674.9,207.1c-1-2.8-3.1-8.5-5.1-10.8c-1.7-2-5-2.7-6.3-5.1c-3.9-0.3-9.4-1.5-13.3,0c-12.7,5-20.4,11.5-24.1,26
	c-0.5,1.8-1.7,6-1.3,8.2c1.2,6.7,5.2,11.4,6.3,16.5c0.6,0,1.3,0,1.9,0c0,0.6,0,1.3,0,1.9c3.8,0.8,8.3,5.4,14.6,3.2
	c10-3.5,20.3-10.5,24.7-19.7c1.1-2.4,0.4-4.2,1.3-7C674.3,218.1,676.3,211.2,674.9,207.1z M663.5,226.8c-1.4,5.3-4.5,9.5-6.3,13.9
	c-13,0.2-15.3-6.6-19-15.8c-1-2.5-3.5-7.9-2.5-12c1.4-5.7,4.4-10.5,6.3-15.2c1.8-0.2,2.7-0.4,3.8-1.3
	C656.5,197.3,667.4,211.7,663.5,226.8z"/>
<path class="st0" d="M238.8,237.5c-0.9-0.5-0.8-0.2-1.9,0.6c-0.2,0-0.4,0-0.6,0c0-14.4,0-28.7,0-43.1c-0.8-1.8-2.2-2.2-2.5-5.1
	c-1.5-0.6-4.9-2.4-5.7-3.8c-12.7,0.1-18.9,6.6-27.3,10.8c0.1,1.6,0.1,2.3,0.6,3.2c0.1,1.8,0.3,2.7,0.6,3.8c3.7-0.1,6.3-1.3,8.2-3.2
	c0.8-0.7-1.5-4-0.6-5.7c0.9-1.7,3.8-2.7,5.7-1.3c8.1,0,6,4.5,8.9,9.5c0,1.9,0,3.8,0,5.7c-2.5,1.3-5.1,2.5-7.6,3.8
	c-4,2.6-12.8,9.2-15.8,12.7c-2.2,2.5-2.6,7.3-5.1,9.5c-0.4,15.1,13.6,11,21.6,7c2.9-1.5,3.7,0.4,5.1-2.5c0.6,0,1.3,0,1.9,0
	c0.2,2.1,0.4,4.2,0.6,6.3c5.8-0.9,10.2-4.5,14.6-7C239,237.7,239.3,238.2,238.8,237.5z M224.8,238.2c-1.3,0-2.5,0-3.8,0
	c0,0.4,0,0.8,0,1.3c-4,1.7-9.9-0.9-12.7-1.3c-0.2-0.2-0.4-0.4-0.6-0.6c-0.9-3.4-2.4-8.8,0.6-11.4c0.5-7.2,10-11.8,15.2-14.6
	c0.4,0.4,0.8,0.8,1.3,1.3C224.8,221.3,224.8,229.7,224.8,238.2z"/>
<path class="st0" d="M497.4,233.1c0.8,0,1.7,0,2.5,0c0,0.4,0,0.8,0,1.3c-1.7,1-1.4,2.5-1.3,5.1c5,3.2,11.3,2.7,19.7,2.5
	c2.4,1.7,5.5,0,8.9,1.3c7.7,2.8,11,6.6,10.8,17.7c-2.2,1.4-1.1,2.9-2.5,5.1c-2.2,3.1-13.8,12.7-18.4,13.3c0-0.2,0-0.4,0-0.6
	c0.5-0.6,0.2-0.2,0.6-1.3c7.9-2.3,9.2-9.7,8.9-20.3c-2.6-1.7-4.7-5-7.6-6.3c-6-2.7-23.7-2.5-29.8-2.5c-1.4-2.2-1.9-3-1.9-7
	C488.8,240.3,496.6,234.5,497.4,233.1z"/>
<path class="st0" d="M496.7,258.5c-0.6,0-1.3,0-1.9,0c-0.7,1.8-1.1,1.7-1.3,4.4c-1.8,1.6-1.4,6.1-1.3,9.5c3,1.4,3.9,4.7,6.3,6.3
	c5.3,3.5,12.6,1.4,18.4,0.6c0,0.2,0,0.4,0,0.6c-0.5,0.6-0.2,0.2-0.6,1.3c-3.7,0.5-5.1,2.5-7.6,3.8c-4.7,2.4-13.2,1.2-19.7,1.3
	c-2.6-3.3-6.6-3-7-8.9c-1.4-1.2-1.4-2.9-1.3-5.7c1.8-1.6,1.1-3.6,2.5-5.7c2.4-3.5,9-7.8,13.3-9.5
	C496.7,257.2,496.7,257.8,496.7,258.5z"/>
<g>
	<circle class="st1" cx="130" cy="209.5" r="4.8"/>
	<path d="M130,205c2.5,0,4.5,2,4.5,4.5s-2,4.5-4.5,4.5s-4.5-2-4.5-4.5S127.5,205,130,205 M130,204.5c-2.8,0-5,2.2-5,5s2.2,5,5,5
		s5-2.2,5-5S132.8,204.5,130,204.5L130,204.5z"/>
</g>
<g>
	<circle class="st1" cx="153" cy="191.5" r="4.8"/>
	<path d="M153,187c2.5,0,4.5,2,4.5,4.5s-2,4.5-4.5,4.5s-4.5-2-4.5-4.5S150.5,187,153,187 M153,186.5c-2.8,0-5,2.2-5,5s2.2,5,5,5
		s5-2.2,5-5S155.8,186.5,153,186.5L153,186.5z"/>
</g>
<line class="st2" x1="129.5" y1="210" x2="39.5" y2="210"/>
<text transform="matrix(1 0 0 1 38.3335 224.5)" class="st3 st4">Stem</text>
<text transform="matrix(1 0 0 1 157.3335 99.5)" class="st3 st4">Crossbar</text>
<line class="st2" x1="152.5" y1="191" x2="152.5" y2="90"/>
<g>
	<circle class="st1" cx="707" cy="191.5" r="4.8"/>
	<path d="M707,187c2.5,0,4.5,2,4.5,4.5s-2,4.5-4.5,4.5s-4.5-2-4.5-4.5S704.5,187,707,187 M707,186.5c-2.8,0-5,2.2-5,5s2.2,5,5,5
		s5-2.2,5-5S709.8,186.5,707,186.5L707,186.5z"/>
</g>
<text transform="matrix(1 0 0 1 711.3335 99.5)" class="st3 st4">Shoulder</text>
<text transform="matrix(1 0 0 1 661.3335 322.5)" class="st3 st4">Stress</text>
<line class="st2" x1="706.5" y1="191" x2="706.5" y2="90"/>
<g>
	<circle class="st1" cx="542" cy="191.5" r="4.8"/>
	<path d="M542,187c2.5,0,4.5,2,4.5,4.5s-2,4.5-4.5,4.5s-4.5-2-4.5-4.5S539.5,187,542,187 M542,186.5c-2.8,0-5,2.2-5,5s2.2,5,5,5
		s5-2.2,5-5S544.8,186.5,542,186.5L542,186.5z"/>
</g>
<text transform="matrix(1 0 0 1 546.3335 99.5)" class="st3 st4">Ear</text>
<line class="st2" x1="541.5" y1="191" x2="541.5" y2="90"/>
<g>
	<circle class="st1" cx="656" cy="240.5" r="4.8"/>
	<path d="M656,236c2.5,0,4.5,2,4.5,4.5s-2,4.5-4.5,4.5s-4.5-2-4.5-4.5S653.5,236,656,236 M656,235.5c-2.8,0-5,2.2-5,5s2.2,5,5,5
		s5-2.2,5-5S658.8,235.5,656,235.5L656,235.5z"/>
</g>
<line class="st2" x1="656.5" y1="323.3" x2="656.5" y2="240.3"/>
<text transform="matrix(1 0 0 1 523.3335 322.5)" class="st3 st4">Loop</text>
<g>
	<circle class="st1" cx="518" cy="276.5" r="4.8"/>
	<path d="M518,272c2.5,0,4.5,2,4.5,4.5s-2,4.5-4.5,4.5s-4.5-2-4.5-4.5S515.5,272,518,272 M518,271.5c-2.8,0-5,2.2-5,5s2.2,5,5,5
		s5-2.2,5-5S520.8,271.5,518,271.5L518,271.5z"/>
</g>
<line class="st2" x1="518.5" y1="323.3" x2="518.5" y2="274.3"/>
<text transform="matrix(1 0 0 1 477.3335 322.5)" class="st3 st4">Link</text>
<g>
	<circle class="st1" cx="492" cy="240.5" r="4.8"/>
	<path d="M492,236c2.5,0,4.5,2,4.5,4.5s-2,4.5-4.5,4.5s-4.5-2-4.5-4.5S489.5,236,492,236 M492,235.5c-2.8,0-5,2.2-5,5s2.2,5,5,5
		s5-2.2,5-5S494.8,235.5,492,235.5L492,235.5z"/>
</g>
<polyline class="st5" points="472.5,323.3 472.5,240.8 491.5,240.8 "/>
</svg>
